<mxfile host="65bd71144e">
    <diagram name="Page-1" id="IpADr0PL52sPq1yM12Ez">
        <mxGraphModel dx="1086" dy="710" grid="1" gridSize="10" guides="1" tooltips="1" connect="1" arrows="1" fold="1" page="1" pageScale="1" pageWidth="850" pageHeight="1100" math="0" shadow="0">
            <root>
                <mxCell id="0"/>
                <mxCell id="1" parent="0"/>
                <mxCell id="2" value="" style="rounded=0;whiteSpace=wrap;html=1;fillColor=#1A1A1A;" vertex="1" parent="1">
                    <mxGeometry x="20" y="150" width="810" height="840" as="geometry"/>
                </mxCell>
                <mxCell id="jr4BHONJEMZqJQ4LnIEx-31" style="edgeStyle=orthogonalEdgeStyle;rounded=0;orthogonalLoop=1;jettySize=auto;html=1;exitX=0.5;exitY=0;exitDx=0;exitDy=0;entryX=0.5;entryY=1;entryDx=0;entryDy=0;fillColor=#f8cecc;strokeColor=#b85450;endArrow=none;endFill=0;" parent="1" source="jr4BHONJEMZqJQ4LnIEx-1" target="jr4BHONJEMZqJQ4LnIEx-8" edge="1">
                    <mxGeometry relative="1" as="geometry"/>
                </mxCell>
                <mxCell id="jr4BHONJEMZqJQ4LnIEx-32" style="edgeStyle=orthogonalEdgeStyle;rounded=0;orthogonalLoop=1;jettySize=auto;html=1;exitX=0.5;exitY=0;exitDx=0;exitDy=0;entryX=0.5;entryY=1;entryDx=0;entryDy=0;endArrow=none;endFill=0;fillColor=#f8cecc;strokeColor=#b85450;" parent="1" source="jr4BHONJEMZqJQ4LnIEx-1" target="jr4BHONJEMZqJQ4LnIEx-9" edge="1">
                    <mxGeometry relative="1" as="geometry"/>
                </mxCell>
                <mxCell id="jr4BHONJEMZqJQ4LnIEx-33" style="edgeStyle=orthogonalEdgeStyle;rounded=0;orthogonalLoop=1;jettySize=auto;html=1;exitX=0.5;exitY=0;exitDx=0;exitDy=0;entryX=0.5;entryY=1;entryDx=0;entryDy=0;fillColor=#f8cecc;strokeColor=#b85450;endArrow=none;endFill=0;" parent="1" source="jr4BHONJEMZqJQ4LnIEx-1" target="jr4BHONJEMZqJQ4LnIEx-11" edge="1">
                    <mxGeometry relative="1" as="geometry"/>
                </mxCell>
                <mxCell id="jr4BHONJEMZqJQ4LnIEx-46" style="edgeStyle=orthogonalEdgeStyle;rounded=0;orthogonalLoop=1;jettySize=auto;html=1;exitX=0.5;exitY=0;exitDx=0;exitDy=0;entryX=0.5;entryY=1;entryDx=0;entryDy=0;fillColor=#f8cecc;strokeColor=#b85450;endArrow=none;endFill=0;" parent="1" source="jr4BHONJEMZqJQ4LnIEx-1" target="jr4BHONJEMZqJQ4LnIEx-43" edge="1">
                    <mxGeometry relative="1" as="geometry"/>
                </mxCell>
                <mxCell id="jr4BHONJEMZqJQ4LnIEx-1" value="VEHICLES" style="rounded=0;whiteSpace=wrap;html=1;container=0;fillColor=#f8cecc;strokeColor=#b85450;" parent="1" vertex="1">
                    <mxGeometry x="402.97058823529414" y="438" width="91.76470588235294" height="42" as="geometry"/>
                </mxCell>
                <mxCell id="AZvVjgohRfEhTElXnXVJ-17" style="edgeStyle=orthogonalEdgeStyle;rounded=0;orthogonalLoop=1;jettySize=auto;html=1;exitX=0.5;exitY=1;exitDx=0;exitDy=0;entryX=0.5;entryY=0;entryDx=0;entryDy=0;endArrow=none;endFill=0;fillColor=#b0e3e6;strokeColor=#0e8088;" parent="1" source="jr4BHONJEMZqJQ4LnIEx-2" target="AZvVjgohRfEhTElXnXVJ-10" edge="1">
                    <mxGeometry relative="1" as="geometry"/>
                </mxCell>
                <mxCell id="AZvVjgohRfEhTElXnXVJ-32" style="edgeStyle=orthogonalEdgeStyle;rounded=0;orthogonalLoop=1;jettySize=auto;html=1;exitX=0.5;exitY=0;exitDx=0;exitDy=0;entryX=0.5;entryY=1;entryDx=0;entryDy=0;endArrow=none;endFill=0;fillColor=#b0e3e6;strokeColor=#0e8088;" parent="1" source="jr4BHONJEMZqJQ4LnIEx-2" target="AZvVjgohRfEhTElXnXVJ-29" edge="1">
                    <mxGeometry relative="1" as="geometry">
                        <Array as="points">
                            <mxPoint x="242" y="420"/>
                            <mxPoint x="157" y="420"/>
                        </Array>
                    </mxGeometry>
                </mxCell>
                <mxCell id="AZvVjgohRfEhTElXnXVJ-33" style="edgeStyle=orthogonalEdgeStyle;rounded=0;orthogonalLoop=1;jettySize=auto;html=1;exitX=0.5;exitY=0;exitDx=0;exitDy=0;endArrow=none;endFill=0;fillColor=#b0e3e6;strokeColor=#0e8088;" parent="1" source="jr4BHONJEMZqJQ4LnIEx-2" target="AZvVjgohRfEhTElXnXVJ-30" edge="1">
                    <mxGeometry relative="1" as="geometry"/>
                </mxCell>
                <mxCell id="AZvVjgohRfEhTElXnXVJ-34" style="edgeStyle=orthogonalEdgeStyle;rounded=0;orthogonalLoop=1;jettySize=auto;html=1;exitX=0.5;exitY=0;exitDx=0;exitDy=0;entryX=0.5;entryY=1;entryDx=0;entryDy=0;fillColor=#b0e3e6;strokeColor=#0e8088;endArrow=none;endFill=0;" parent="1" source="jr4BHONJEMZqJQ4LnIEx-2" target="AZvVjgohRfEhTElXnXVJ-31" edge="1">
                    <mxGeometry relative="1" as="geometry">
                        <Array as="points">
                            <mxPoint x="242" y="420"/>
                            <mxPoint x="328" y="420"/>
                        </Array>
                    </mxGeometry>
                </mxCell>
                <mxCell id="jr4BHONJEMZqJQ4LnIEx-2" value="OWNER" style="rounded=0;whiteSpace=wrap;html=1;container=0;fillColor=#b0e3e6;strokeColor=#0e8088;" parent="1" vertex="1">
                    <mxGeometry x="196.5" y="438" width="91.76470588235294" height="42" as="geometry"/>
                </mxCell>
                <mxCell id="jr4BHONJEMZqJQ4LnIEx-40" style="edgeStyle=orthogonalEdgeStyle;rounded=0;orthogonalLoop=1;jettySize=auto;html=1;exitX=0.5;exitY=0;exitDx=0;exitDy=0;entryX=0.5;entryY=1;entryDx=0;entryDy=0;endArrow=none;endFill=0;fillColor=#d5e8d4;strokeColor=#82b366;" parent="1" source="jr4BHONJEMZqJQ4LnIEx-3" target="jr4BHONJEMZqJQ4LnIEx-39" edge="1">
                    <mxGeometry relative="1" as="geometry"/>
                </mxCell>
                <mxCell id="jr4BHONJEMZqJQ4LnIEx-41" style="edgeStyle=orthogonalEdgeStyle;rounded=0;orthogonalLoop=1;jettySize=auto;html=1;exitX=0.5;exitY=0;exitDx=0;exitDy=0;endArrow=none;endFill=0;fillColor=#d5e8d4;strokeColor=#82b366;" parent="1" source="jr4BHONJEMZqJQ4LnIEx-3" target="jr4BHONJEMZqJQ4LnIEx-37" edge="1">
                    <mxGeometry relative="1" as="geometry"/>
                </mxCell>
                <mxCell id="jr4BHONJEMZqJQ4LnIEx-42" style="edgeStyle=orthogonalEdgeStyle;rounded=0;orthogonalLoop=1;jettySize=auto;html=1;exitX=0.5;exitY=0;exitDx=0;exitDy=0;entryX=0.5;entryY=1;entryDx=0;entryDy=0;endArrow=none;endFill=0;fillColor=#d5e8d4;strokeColor=#82b366;" parent="1" source="jr4BHONJEMZqJQ4LnIEx-3" target="jr4BHONJEMZqJQ4LnIEx-38" edge="1">
                    <mxGeometry relative="1" as="geometry"/>
                </mxCell>
                <mxCell id="jr4BHONJEMZqJQ4LnIEx-3" value="SERVICES" style="rounded=0;whiteSpace=wrap;html=1;shape=ext;margin=3;double=1;container=0;fillColor=#d5e8d4;strokeColor=#82b366;" parent="1" vertex="1">
                    <mxGeometry x="646.4952941176471" y="438" width="91.76470588235294" height="42" as="geometry"/>
                </mxCell>
                <mxCell id="jr4BHONJEMZqJQ4LnIEx-49" value="" style="edgeStyle=orthogonalEdgeStyle;rounded=0;orthogonalLoop=1;jettySize=auto;html=1;endArrow=none;endFill=0;" parent="1" source="jr4BHONJEMZqJQ4LnIEx-4" target="jr4BHONJEMZqJQ4LnIEx-43" edge="1">
                    <mxGeometry relative="1" as="geometry"/>
                </mxCell>
                <mxCell id="jr4BHONJEMZqJQ4LnIEx-4" value="Plate State" style="ellipse;whiteSpace=wrap;html=1;container=0;fillColor=#f8cecc;strokeColor=#b85450;" parent="1" vertex="1">
                    <mxGeometry x="316.94" y="200" width="57.35294117647059" height="28" as="geometry"/>
                </mxCell>
                <mxCell id="jr4BHONJEMZqJQ4LnIEx-6" value="Plate number" style="ellipse;whiteSpace=wrap;html=1;container=0;fillColor=#f8cecc;strokeColor=#b85450;" parent="1" vertex="1">
                    <mxGeometry x="402.9729411764706" y="200" width="57.35294117647059" height="28" as="geometry"/>
                </mxCell>
                <mxCell id="jr4BHONJEMZqJQ4LnIEx-8" value="Make" style="ellipse;whiteSpace=wrap;html=1;container=0;fillColor=#f8cecc;strokeColor=#b85450;" parent="1" vertex="1">
                    <mxGeometry x="441.20588235294116" y="312" width="57.35294117647059" height="28" as="geometry"/>
                </mxCell>
                <mxCell id="jr4BHONJEMZqJQ4LnIEx-9" value="Model" style="ellipse;whiteSpace=wrap;html=1;container=0;fillColor=#f8cecc;strokeColor=#b85450;" parent="1" vertex="1">
                    <mxGeometry x="498.5588235294117" y="312" width="57.35294117647059" height="28" as="geometry"/>
                </mxCell>
                <mxCell id="jr4BHONJEMZqJQ4LnIEx-11" value="Year" style="ellipse;whiteSpace=wrap;html=1;container=0;fillColor=#f8cecc;strokeColor=#b85450;" parent="1" vertex="1">
                    <mxGeometry x="555.9117647058823" y="312" width="57.35294117647059" height="28" as="geometry"/>
                </mxCell>
                <mxCell id="jr4BHONJEMZqJQ4LnIEx-18" style="edgeStyle=orthogonalEdgeStyle;rounded=0;orthogonalLoop=1;jettySize=auto;html=1;exitX=1;exitY=0.5;exitDx=0;exitDy=0;entryX=0;entryY=0.5;entryDx=0;entryDy=0;endArrow=ERoneToMany;endFill=0;fillColor=#b0e3e6;strokeColor=#0e8088;" parent="1" source="jr4BHONJEMZqJQ4LnIEx-17" target="jr4BHONJEMZqJQ4LnIEx-1" edge="1">
                    <mxGeometry relative="1" as="geometry"/>
                </mxCell>
                <mxCell id="jr4BHONJEMZqJQ4LnIEx-19" style="edgeStyle=orthogonalEdgeStyle;rounded=0;orthogonalLoop=1;jettySize=auto;html=1;exitX=0;exitY=0.5;exitDx=0;exitDy=0;entryX=1;entryY=0.5;entryDx=0;entryDy=0;endArrow=ERmandOne;endFill=0;fillColor=#fad9d5;strokeColor=#ae4132;" parent="1" source="jr4BHONJEMZqJQ4LnIEx-17" target="jr4BHONJEMZqJQ4LnIEx-2" edge="1">
                    <mxGeometry relative="1" as="geometry"/>
                </mxCell>
                <mxCell id="jr4BHONJEMZqJQ4LnIEx-17" value="Owns" style="shape=rhombus;perimeter=rhombusPerimeter;whiteSpace=wrap;html=1;align=center;container=0;fillColor=#e1d5e7;strokeColor=#9673a6;" parent="1" vertex="1">
                    <mxGeometry x="307.38235294117646" y="441.5" width="76.47058823529412" height="35" as="geometry"/>
                </mxCell>
                <mxCell id="jr4BHONJEMZqJQ4LnIEx-34" style="edgeStyle=orthogonalEdgeStyle;rounded=0;orthogonalLoop=1;jettySize=auto;html=1;exitX=0;exitY=0.5;exitDx=0;exitDy=0;entryX=1;entryY=0.5;entryDx=0;entryDy=0;endArrow=ERmandOne;endFill=0;fillColor=#d5e8d4;strokeColor=#82b366;" parent="1" target="jr4BHONJEMZqJQ4LnIEx-1" edge="1">
                    <mxGeometry relative="1" as="geometry">
                        <mxPoint x="526.5" y="459" as="sourcePoint"/>
                    </mxGeometry>
                </mxCell>
                <mxCell id="jr4BHONJEMZqJQ4LnIEx-35" style="edgeStyle=orthogonalEdgeStyle;rounded=0;orthogonalLoop=1;jettySize=auto;html=1;exitX=1;exitY=0.5;exitDx=0;exitDy=0;entryX=0;entryY=0.5;entryDx=0;entryDy=0;endArrow=ERoneToMany;endFill=0;fillColor=#f8cecc;strokeColor=#b85450;" parent="1" target="jr4BHONJEMZqJQ4LnIEx-3" edge="1">
                    <mxGeometry relative="1" as="geometry">
                        <mxPoint x="621.79" y="459" as="sourcePoint"/>
                    </mxGeometry>
                </mxCell>
                <mxCell id="jr4BHONJEMZqJQ4LnIEx-37" value="Price" style="ellipse;whiteSpace=wrap;html=1;container=0;fillColor=#d5e8d4;strokeColor=#82b366;" parent="1" vertex="1">
                    <mxGeometry x="685.61" y="360" width="60.89" height="40" as="geometry"/>
                </mxCell>
                <mxCell id="jr4BHONJEMZqJQ4LnIEx-38" value="Type" style="whiteSpace=wrap;html=1;shape=doubleEllipse;perimeter=ellipsePerimeter;margin=3;container=0;fillColor=#d5e8d4;strokeColor=#82b366;" parent="1" vertex="1">
                    <mxGeometry x="746.5" y="358" width="60.89" height="40" as="geometry"/>
                </mxCell>
                <mxCell id="jr4BHONJEMZqJQ4LnIEx-39" value="&lt;span style=&quot;border-bottom: 1px dotted&quot;&gt;Date of Service&lt;/span&gt;" style="ellipse;whiteSpace=wrap;html=1;align=center;container=0;fillColor=#d5e8d4;strokeColor=#82b366;" parent="1" vertex="1">
                    <mxGeometry x="613.26" y="350" width="70" height="50" as="geometry"/>
                </mxCell>
                <mxCell id="jr4BHONJEMZqJQ4LnIEx-47" style="edgeStyle=orthogonalEdgeStyle;rounded=0;orthogonalLoop=1;jettySize=auto;html=1;exitX=0.5;exitY=0;exitDx=0;exitDy=0;entryX=0.5;entryY=1;entryDx=0;entryDy=0;fillColor=#f8cecc;strokeColor=#b85450;endArrow=none;endFill=0;" parent="1" source="jr4BHONJEMZqJQ4LnIEx-43" target="jr4BHONJEMZqJQ4LnIEx-4" edge="1">
                    <mxGeometry relative="1" as="geometry"/>
                </mxCell>
                <mxCell id="jr4BHONJEMZqJQ4LnIEx-48" style="edgeStyle=orthogonalEdgeStyle;rounded=0;orthogonalLoop=1;jettySize=auto;html=1;exitX=0.5;exitY=0;exitDx=0;exitDy=0;entryX=0.5;entryY=1;entryDx=0;entryDy=0;endArrow=none;endFill=0;fillColor=#f8cecc;strokeColor=#b85450;" parent="1" source="jr4BHONJEMZqJQ4LnIEx-43" target="jr4BHONJEMZqJQ4LnIEx-6" edge="1">
                    <mxGeometry relative="1" as="geometry"/>
                </mxCell>
                <mxCell id="jr4BHONJEMZqJQ4LnIEx-43" value="License Plate" style="ellipse;whiteSpace=wrap;html=1;fontStyle=4;container=0;fillColor=#f8cecc;strokeColor=#b85450;" parent="1" vertex="1">
                    <mxGeometry x="356.5" y="282" width="65" height="28" as="geometry"/>
                </mxCell>
                <mxCell id="jr4BHONJEMZqJQ4LnIEx-45" value="Receives" style="shape=rhombus;double=1;perimeter=rhombusPerimeter;whiteSpace=wrap;html=1;align=center;container=0;fillColor=#e1d5e7;strokeColor=#9673a6;" parent="1" vertex="1">
                    <mxGeometry x="526.5" y="429" width="100" height="60" as="geometry"/>
                </mxCell>
                <mxCell id="AZvVjgohRfEhTElXnXVJ-10" value="" style="ellipse;whiteSpace=wrap;html=1;aspect=fixed;container=0;fillColor=#e1d5e7;strokeColor=#9673a6;" parent="1" vertex="1">
                    <mxGeometry x="232.38" y="520" width="20" height="20" as="geometry"/>
                </mxCell>
                <mxCell id="AZvVjgohRfEhTElXnXVJ-29" value="&lt;u&gt;Phone #&lt;/u&gt;" style="ellipse;whiteSpace=wrap;html=1;align=center;container=0;fillColor=#b0e3e6;strokeColor=#0e8088;" parent="1" vertex="1">
                    <mxGeometry x="121.88" y="361" width="70" height="30" as="geometry"/>
                </mxCell>
                <mxCell id="AZvVjgohRfEhTElXnXVJ-30" value="Date of First Service" style="ellipse;whiteSpace=wrap;html=1;align=center;container=0;fillColor=#b0e3e6;strokeColor=#0e8088;" parent="1" vertex="1">
                    <mxGeometry x="191.88" y="361" width="101" height="34" as="geometry"/>
                </mxCell>
                <mxCell id="AZvVjgohRfEhTElXnXVJ-31" value="Email" style="ellipse;whiteSpace=wrap;html=1;align=center;container=0;fillColor=#b0e3e6;strokeColor=#0e8088;" parent="1" vertex="1">
                    <mxGeometry x="292.88" y="363" width="70" height="30" as="geometry"/>
                </mxCell>
                <mxCell id="AZvVjgohRfEhTElXnXVJ-53" style="edgeStyle=orthogonalEdgeStyle;rounded=0;orthogonalLoop=1;jettySize=auto;html=1;exitX=0.5;exitY=0;exitDx=0;exitDy=0;entryX=0.5;entryY=1;entryDx=0;entryDy=0;endArrow=ERoneToMany;endFill=0;fillColor=#dae8fc;strokeColor=#6c8ebf;" parent="1" source="AZvVjgohRfEhTElXnXVJ-51" target="jr4BHONJEMZqJQ4LnIEx-3" edge="1">
                    <mxGeometry relative="1" as="geometry">
                        <mxPoint x="692.3776470588234" y="540" as="targetPoint"/>
                    </mxGeometry>
                </mxCell>
                <mxCell id="AZvVjgohRfEhTElXnXVJ-54" style="edgeStyle=orthogonalEdgeStyle;rounded=0;orthogonalLoop=1;jettySize=auto;html=1;exitX=0.5;exitY=1;exitDx=0;exitDy=0;entryX=0.5;entryY=0;entryDx=0;entryDy=0;endArrow=ERzeroToOne;endFill=0;fillColor=#d5e8d4;strokeColor=#82b366;" parent="1" source="AZvVjgohRfEhTElXnXVJ-51" target="AZvVjgohRfEhTElXnXVJ-35" edge="1">
                    <mxGeometry relative="1" as="geometry"/>
                </mxCell>
                <mxCell id="AZvVjgohRfEhTElXnXVJ-51" value="Needs&amp;nbsp;&lt;div&gt;Parts&lt;/div&gt;" style="rhombus;whiteSpace=wrap;html=1;container=0;fillColor=#e1d5e7;strokeColor=#9673a6;" parent="1" vertex="1">
                    <mxGeometry x="662.3800000000001" y="570" width="60" height="80" as="geometry"/>
                </mxCell>
                <mxCell id="AZvVjgohRfEhTElXnXVJ-75" value="" style="endArrow=none;startArrow=none;html=1;rounded=0;entryX=0.5;entryY=1;entryDx=0;entryDy=0;exitX=1;exitY=0;exitDx=0;exitDy=0;endFill=0;fillColor=#b0e3e6;strokeColor=#0e8088;startFill=0;" parent="1" source="AZvVjgohRfEhTElXnXVJ-7" target="AZvVjgohRfEhTElXnXVJ-10" edge="1">
                    <mxGeometry width="50" height="50" relative="1" as="geometry">
                        <mxPoint x="131.88" y="550" as="sourcePoint"/>
                        <mxPoint x="181.88" y="500" as="targetPoint"/>
                    </mxGeometry>
                </mxCell>
                <mxCell id="AZvVjgohRfEhTElXnXVJ-81" value="" style="endArrow=none;startArrow=none;html=1;rounded=0;entryX=0.5;entryY=1;entryDx=0;entryDy=0;exitX=0;exitY=0;exitDx=0;exitDy=0;endFill=0;startFill=0;fillColor=#b0e3e6;strokeColor=#0e8088;" parent="1" source="AZvVjgohRfEhTElXnXVJ-8" target="AZvVjgohRfEhTElXnXVJ-10" edge="1">
                    <mxGeometry width="50" height="50" relative="1" as="geometry">
                        <mxPoint x="156.5" y="590" as="sourcePoint"/>
                        <mxPoint x="252.5" y="560" as="targetPoint"/>
                    </mxGeometry>
                </mxCell>
                <mxCell id="AZvVjgohRfEhTElXnXVJ-7" value="COMMERCIAL&lt;div&gt;OWNER&lt;/div&gt;" style="rounded=1;arcSize=10;whiteSpace=wrap;html=1;align=center;container=0;fillColor=#b1ddf0;strokeColor=#10739e;" parent="1" vertex="1">
                    <mxGeometry x="96.5" y="580" width="100" height="40" as="geometry"/>
                </mxCell>
                <mxCell id="AZvVjgohRfEhTElXnXVJ-5" style="edgeStyle=orthogonalEdgeStyle;rounded=0;orthogonalLoop=1;jettySize=auto;html=1;exitX=0.5;exitY=1;exitDx=0;exitDy=0;entryX=0.5;entryY=0;entryDx=0;entryDy=0;fillColor=#b1ddf0;strokeColor=#10739e;endArrow=none;endFill=0;" parent="1" source="AZvVjgohRfEhTElXnXVJ-7" target="AZvVjgohRfEhTElXnXVJ-11" edge="1">
                    <mxGeometry relative="1" as="geometry"/>
                </mxCell>
                <mxCell id="AZvVjgohRfEhTElXnXVJ-6" style="edgeStyle=orthogonalEdgeStyle;rounded=0;orthogonalLoop=1;jettySize=auto;html=1;exitX=0.5;exitY=1;exitDx=0;exitDy=0;entryX=0.5;entryY=0;entryDx=0;entryDy=0;fillColor=#b1ddf0;strokeColor=#10739e;endArrow=none;endFill=0;" parent="1" source="AZvVjgohRfEhTElXnXVJ-7" target="AZvVjgohRfEhTElXnXVJ-26" edge="1">
                    <mxGeometry relative="1" as="geometry">
                        <mxPoint x="66.5" y="670" as="targetPoint"/>
                    </mxGeometry>
                </mxCell>
                <mxCell id="AZvVjgohRfEhTElXnXVJ-11" value="Tax ID" style="ellipse;whiteSpace=wrap;html=1;align=center;container=0;fillColor=#b0e3e6;strokeColor=#0e8088;" parent="1" vertex="1">
                    <mxGeometry x="112" y="670" width="69" height="30" as="geometry"/>
                </mxCell>
                <mxCell id="AZvVjgohRfEhTElXnXVJ-26" value="Business Name" style="ellipse;whiteSpace=wrap;html=1;align=center;container=0;fillColor=#b0e3e6;strokeColor=#0e8088;" parent="1" vertex="1">
                    <mxGeometry x="43" y="670" width="69" height="50" as="geometry"/>
                </mxCell>
                <mxCell id="AZvVjgohRfEhTElXnXVJ-3" value="Last name" style="ellipse;whiteSpace=wrap;html=1;align=center;container=0;fillColor=#bac8d3;strokeColor=#23445d;" parent="1" vertex="1">
                    <mxGeometry x="371.37999999999994" y="670" width="69" height="30" as="geometry"/>
                </mxCell>
                <mxCell id="AZvVjgohRfEhTElXnXVJ-4" value="First name" style="ellipse;whiteSpace=wrap;html=1;align=center;container=0;fillColor=#bac8d3;strokeColor=#23445d;" parent="1" vertex="1">
                    <mxGeometry x="305.14" y="670" width="66.24" height="28.8" as="geometry"/>
                </mxCell>
                <mxCell id="AZvVjgohRfEhTElXnXVJ-27" style="edgeStyle=orthogonalEdgeStyle;rounded=0;orthogonalLoop=1;jettySize=auto;html=1;exitX=0.5;exitY=1;exitDx=0;exitDy=0;entryX=0.5;entryY=0;entryDx=0;entryDy=0;fillColor=#bac8d3;strokeColor=#23445d;endArrow=none;endFill=0;" parent="1" source="AZvVjgohRfEhTElXnXVJ-8" target="AZvVjgohRfEhTElXnXVJ-4" edge="1">
                    <mxGeometry relative="1" as="geometry"/>
                </mxCell>
                <mxCell id="AZvVjgohRfEhTElXnXVJ-28" style="edgeStyle=orthogonalEdgeStyle;rounded=0;orthogonalLoop=1;jettySize=auto;html=1;exitX=0.5;exitY=1;exitDx=0;exitDy=0;endArrow=none;endFill=0;fillColor=#bac8d3;strokeColor=#23445d;" parent="1" source="AZvVjgohRfEhTElXnXVJ-8" target="AZvVjgohRfEhTElXnXVJ-3" edge="1">
                    <mxGeometry relative="1" as="geometry"/>
                </mxCell>
                <mxCell id="AZvVjgohRfEhTElXnXVJ-8" value="INDIVIDUAL&amp;nbsp;&lt;div&gt;OWNER&lt;/div&gt;" style="rounded=1;arcSize=10;whiteSpace=wrap;html=1;align=center;container=0;fillColor=#bac8d3;strokeColor=#23445d;" parent="1" vertex="1">
                    <mxGeometry x="288.26" y="580" width="100" height="40" as="geometry"/>
                </mxCell>
                <mxCell id="AZvVjgohRfEhTElXnXVJ-83" value="" style="group" parent="1" vertex="1" connectable="0">
                    <mxGeometry x="259.32" y="700" width="537.25" height="200" as="geometry"/>
                </mxCell>
                <mxCell id="AZvVjgohRfEhTElXnXVJ-48" style="edgeStyle=orthogonalEdgeStyle;rounded=0;orthogonalLoop=1;jettySize=auto;html=1;exitX=0.5;exitY=1;exitDx=0;exitDy=0;fillColor=#dae8fc;strokeColor=#6c8ebf;endArrow=none;endFill=0;" parent="AZvVjgohRfEhTElXnXVJ-83" source="AZvVjgohRfEhTElXnXVJ-35" target="AZvVjgohRfEhTElXnXVJ-38" edge="1">
                    <mxGeometry relative="1" as="geometry"/>
                </mxCell>
                <mxCell id="AZvVjgohRfEhTElXnXVJ-49" style="edgeStyle=orthogonalEdgeStyle;rounded=0;orthogonalLoop=1;jettySize=auto;html=1;exitX=0.5;exitY=1;exitDx=0;exitDy=0;entryX=0.5;entryY=0;entryDx=0;entryDy=0;endArrow=none;endFill=0;fillColor=#dae8fc;strokeColor=#6c8ebf;" parent="AZvVjgohRfEhTElXnXVJ-83" source="AZvVjgohRfEhTElXnXVJ-35" target="AZvVjgohRfEhTElXnXVJ-37" edge="1">
                    <mxGeometry relative="1" as="geometry"/>
                </mxCell>
                <mxCell id="AZvVjgohRfEhTElXnXVJ-50" style="edgeStyle=orthogonalEdgeStyle;rounded=0;orthogonalLoop=1;jettySize=auto;html=1;exitX=0.5;exitY=1;exitDx=0;exitDy=0;entryX=0.5;entryY=0;entryDx=0;entryDy=0;endArrow=none;endFill=0;fillColor=#dae8fc;strokeColor=#6c8ebf;" parent="AZvVjgohRfEhTElXnXVJ-83" source="AZvVjgohRfEhTElXnXVJ-35" target="AZvVjgohRfEhTElXnXVJ-39" edge="1">
                    <mxGeometry relative="1" as="geometry"/>
                </mxCell>
                <mxCell id="AZvVjgohRfEhTElXnXVJ-35" value="ORDERS" style="rounded=0;whiteSpace=wrap;html=1;container=0;fillColor=#dae8fc;strokeColor=#6c8ebf;" parent="AZvVjgohRfEhTElXnXVJ-83" vertex="1">
                    <mxGeometry x="387.8605882352942" y="70" width="91.76470588235294" height="42" as="geometry"/>
                </mxCell>
                <mxCell id="AZvVjgohRfEhTElXnXVJ-37" value="First name" style="ellipse;whiteSpace=wrap;html=1;align=center;container=0;fillColor=#dae8fc;strokeColor=#6c8ebf;" parent="AZvVjgohRfEhTElXnXVJ-83" vertex="1">
                    <mxGeometry x="468.25000000000006" y="160" width="69" height="30" as="geometry"/>
                </mxCell>
                <mxCell id="AZvVjgohRfEhTElXnXVJ-38" value="Date Ordered" style="ellipse;whiteSpace=wrap;html=1;align=center;container=0;fillColor=#dae8fc;strokeColor=#6c8ebf;" parent="AZvVjgohRfEhTElXnXVJ-83" vertex="1">
                    <mxGeometry x="399.25000000000006" y="160" width="69" height="40" as="geometry"/>
                </mxCell>
                <mxCell id="AZvVjgohRfEhTElXnXVJ-39" value="&lt;u&gt;Order #&lt;/u&gt;" style="ellipse;whiteSpace=wrap;html=1;align=center;container=0;fillColor=#dae8fc;strokeColor=#6c8ebf;" parent="AZvVjgohRfEhTElXnXVJ-83" vertex="1">
                    <mxGeometry x="328.87000000000006" y="160" width="69" height="30" as="geometry"/>
                </mxCell>
                <mxCell id="AZvVjgohRfEhTElXnXVJ-60" style="edgeStyle=orthogonalEdgeStyle;rounded=0;orthogonalLoop=1;jettySize=auto;html=1;exitX=1;exitY=0.5;exitDx=0;exitDy=0;entryX=0;entryY=0.5;entryDx=0;entryDy=0;endArrow=ERzeroToMany;endFill=0;fillColor=#ffe6cc;strokeColor=#d79b00;" parent="AZvVjgohRfEhTElXnXVJ-83" source="AZvVjgohRfEhTElXnXVJ-55" target="AZvVjgohRfEhTElXnXVJ-35" edge="1">
                    <mxGeometry relative="1" as="geometry"/>
                </mxCell>
                <mxCell id="AZvVjgohRfEhTElXnXVJ-61" style="edgeStyle=orthogonalEdgeStyle;rounded=0;orthogonalLoop=1;jettySize=auto;html=1;exitX=0;exitY=0.5;exitDx=0;exitDy=0;entryX=1;entryY=0.5;entryDx=0;entryDy=0;endArrow=ERoneToMany;endFill=0;fillColor=#dae8fc;strokeColor=#6c8ebf;" parent="AZvVjgohRfEhTElXnXVJ-83" source="AZvVjgohRfEhTElXnXVJ-55" target="AZvVjgohRfEhTElXnXVJ-56" edge="1">
                    <mxGeometry relative="1" as="geometry"/>
                </mxCell>
                <mxCell id="AZvVjgohRfEhTElXnXVJ-69" style="edgeStyle=orthogonalEdgeStyle;rounded=0;orthogonalLoop=1;jettySize=auto;html=1;exitX=0.5;exitY=0;exitDx=0;exitDy=0;entryX=0.5;entryY=1;entryDx=0;entryDy=0;fillColor=#e1d5e7;strokeColor=#9673a6;" parent="AZvVjgohRfEhTElXnXVJ-83" source="AZvVjgohRfEhTElXnXVJ-55" target="AZvVjgohRfEhTElXnXVJ-68" edge="1">
                    <mxGeometry relative="1" as="geometry"/>
                </mxCell>
                <mxCell id="AZvVjgohRfEhTElXnXVJ-55" value="Contains" style="rhombus;whiteSpace=wrap;html=1;container=0;fillColor=#e1d5e7;strokeColor=#9673a6;" parent="AZvVjgohRfEhTElXnXVJ-83" vertex="1">
                    <mxGeometry x="227.92000000000002" y="70" width="80" height="41" as="geometry"/>
                </mxCell>
                <mxCell id="AZvVjgohRfEhTElXnXVJ-65" style="edgeStyle=orthogonalEdgeStyle;rounded=0;orthogonalLoop=1;jettySize=auto;html=1;exitX=0.5;exitY=1;exitDx=0;exitDy=0;entryX=0.5;entryY=0;entryDx=0;entryDy=0;fillColor=#ffe6cc;strokeColor=#d79b00;endArrow=none;endFill=0;" parent="AZvVjgohRfEhTElXnXVJ-83" source="AZvVjgohRfEhTElXnXVJ-56" target="AZvVjgohRfEhTElXnXVJ-63" edge="1">
                    <mxGeometry relative="1" as="geometry"/>
                </mxCell>
                <mxCell id="AZvVjgohRfEhTElXnXVJ-66" style="edgeStyle=orthogonalEdgeStyle;rounded=0;orthogonalLoop=1;jettySize=auto;html=1;exitX=0.5;exitY=1;exitDx=0;exitDy=0;entryX=0.5;entryY=0;entryDx=0;entryDy=0;fillColor=#ffe6cc;strokeColor=#d79b00;endArrow=none;endFill=0;" parent="AZvVjgohRfEhTElXnXVJ-83" source="AZvVjgohRfEhTElXnXVJ-56" target="AZvVjgohRfEhTElXnXVJ-62" edge="1">
                    <mxGeometry relative="1" as="geometry"/>
                </mxCell>
                <mxCell id="AZvVjgohRfEhTElXnXVJ-67" style="edgeStyle=orthogonalEdgeStyle;rounded=0;orthogonalLoop=1;jettySize=auto;html=1;exitX=0.5;exitY=1;exitDx=0;exitDy=0;entryX=0.5;entryY=0;entryDx=0;entryDy=0;fillColor=#ffe6cc;strokeColor=#d79b00;endArrow=none;endFill=0;" parent="AZvVjgohRfEhTElXnXVJ-83" source="AZvVjgohRfEhTElXnXVJ-56" target="AZvVjgohRfEhTElXnXVJ-64" edge="1">
                    <mxGeometry relative="1" as="geometry"/>
                </mxCell>
                <mxCell id="AZvVjgohRfEhTElXnXVJ-56" value="PARTS" style="rounded=0;whiteSpace=wrap;html=1;container=0;fillColor=#ffe6cc;strokeColor=#d79b00;" parent="AZvVjgohRfEhTElXnXVJ-83" vertex="1">
                    <mxGeometry x="57.62058823529418" y="70" width="91.76470588235294" height="42" as="geometry"/>
                </mxCell>
                <mxCell id="AZvVjgohRfEhTElXnXVJ-62" value="&lt;u&gt;Part #&lt;/u&gt;" style="ellipse;whiteSpace=wrap;html=1;align=center;container=0;fillColor=#ffe6cc;strokeColor=#d79b00;" parent="AZvVjgohRfEhTElXnXVJ-83" vertex="1">
                    <mxGeometry y="160" width="69" height="30" as="geometry"/>
                </mxCell>
                <mxCell id="AZvVjgohRfEhTElXnXVJ-63" value="Name" style="ellipse;whiteSpace=wrap;html=1;align=center;container=0;fillColor=#ffe6cc;strokeColor=#d79b00;" parent="AZvVjgohRfEhTElXnXVJ-83" vertex="1">
                    <mxGeometry x="69" y="160" width="69" height="30" as="geometry"/>
                </mxCell>
                <mxCell id="AZvVjgohRfEhTElXnXVJ-64" value="Cost" style="ellipse;whiteSpace=wrap;html=1;align=center;container=0;fillColor=#ffe6cc;strokeColor=#d79b00;" parent="AZvVjgohRfEhTElXnXVJ-83" vertex="1">
                    <mxGeometry x="138" y="160" width="69" height="30" as="geometry"/>
                </mxCell>
                <mxCell id="AZvVjgohRfEhTElXnXVJ-68" value="Quantity" style="ellipse;whiteSpace=wrap;html=1;align=center;container=0;fillColor=#e1d5e7;strokeColor=#9673a6;" parent="AZvVjgohRfEhTElXnXVJ-83" vertex="1">
                    <mxGeometry x="233.42000000000002" width="69" height="30" as="geometry"/>
                </mxCell>
            </root>
        </mxGraphModel>
    </diagram>
</mxfile>